HIERARCHY
ROOT Hips
{
  OFFSET 53.3167 97.2125 37.1021
  CHANNELS 6 Xposition Yposition Zposition Zrotation Xrotation Yrotation
  JOINT spine
  {
    OFFSET 0 7.96568 0.458067
    CHANNELS 3 Zrotation Xrotation Yrotation
    JOINT spine1
    {
      OFFSET 0 10.2431 0
      CHANNELS 3 Zrotation Xrotation Yrotation
      JOINT spine2
      {
        OFFSET 0 9.81475 0
        CHANNELS 3 Zrotation Xrotation Yrotation
        JOINT Neck
        {
          OFFSET 0 25.1986 1.20138
          CHANNELS 3 Zrotation Xrotation Yrotation
          JOINT Head
          {
            OFFSET 0 7.61315 0
            CHANNELS 3 Zrotation Xrotation Yrotation
            End Site
            {
              OFFSET 0 18.4281 -6.07733
            }
          }
        }
        JOINT RightShoulder
        {
          OFFSET -4.1327 10.5992 -0.575451
          CHANNELS 3 Zrotation Xrotation Yrotation
          JOINT RightArm
          {
            OFFSET 0 13.9018 0
            CHANNELS 3 Zrotation Xrotation Yrotation
            JOINT RightArmRoll
            {
              OFFSET 0 7.01789 0
              CHANNELS 3 Zrotation Xrotation Yrotation
              JOINT RightForeArm
              {
                OFFSET 0 20.4406 0
                CHANNELS 3 Zrotation Xrotation Yrotation
                JOINT RightForeArmRoll
                {
                  OFFSET 0 7.87516 0
                  CHANNELS 3 Zrotation Xrotation Yrotation
                  JOINT RightHand
                  {
                    OFFSET 0 15.8037 0
                    CHANNELS 3 Zrotation Xrotation Yrotation
                    End Site
                    {
                      OFFSET 0 0 0
                    }
                  }
                }
              }
            }
          }
        }
        JOINT LeftShoulder
        {
          OFFSET 4.1327 10.5992 -0.575451
          CHANNELS 3 Zrotation Xrotation Yrotation
          JOINT LeftArm
          {
            OFFSET 0 13.9018 0
            CHANNELS 3 Zrotation Xrotation Yrotation
            JOINT LeftArmRoll
            {
              OFFSET 0 7.01789 0
              CHANNELS 3 Zrotation Xrotation Yrotation
              JOINT LeftForeArm
              {
                OFFSET 0 20.4406 0
                CHANNELS 3 Zrotation Xrotation Yrotation
                JOINT LeftForeArmRoll
                {
                  OFFSET 0 7.87515 0
                  CHANNELS 3 Zrotation Xrotation Yrotation
                  JOINT LeftHand
                  {
                    OFFSET 0 15.8037 0
                    CHANNELS 3 Zrotation Xrotation Yrotation
                    End Site
                    {
                      OFFSET 0 0 0
                    }
                  }
                }
              }
            }
          }
        }
      }
    }
  }
  JOINT RightUpLeg
  {
    OFFSET -7.06048 -1.2947 -1.0861
    CHANNELS 3 Zrotation Xrotation Yrotation
    JOINT RightUpLegRoll
    {
      OFFSET 0 18.5308 0
      CHANNELS 3 Zrotation Xrotation Yrotation
      JOINT RightLeg
      {
        OFFSET 0 -22.9476 0
        CHANNELS 3 Zrotation Xrotation Yrotation
        JOINT RightLegRoll
        {
          OFFSET 0 23.0226 0
          CHANNELS 3 Zrotation Xrotation Yrotation
          JOINT RightFoot
          {
            OFFSET 0 19.1625 0
            CHANNELS 3 Zrotation Xrotation Yrotation
            JOINT RightToeBase
            {
              OFFSET 0 16.0188 0
              CHANNELS 3 Zrotation Xrotation Yrotation
              End Site
              {
                OFFSET 0.00678979 7.75782 -0.894207
              }
            }
          }
        }
      }
    }
  }
  JOINT LeftUpLeg
  {
    OFFSET 7.06048 -1.2947 -1.0861
    CHANNELS 3 Zrotation Xrotation Yrotation
    JOINT LeftUpLegRoll
    {
      OFFSET 0 18.5309 0
      CHANNELS 3 Zrotation Xrotation Yrotation
      JOINT LeftLeg
      {
        OFFSET 0 22.9475 0
        CHANNELS 3 Zrotation Xrotation Yrotation
        JOINT LeftLegRoll
        {
          OFFSET 0 23.2355 0
          CHANNELS 3 Zrotation Xrotation Yrotation
          JOINT LeftFoot
          {
            OFFSET 0 18.9496 0
            CHANNELS 3 Zrotation Xrotation Yrotation
            JOINT LeftToeBase
            {
              OFFSET 0 16.0188 0
              CHANNELS 3 Zrotation Xrotation Yrotation
              End Site
              {
                OFFSET -0.0304289 7.75782 -0.894206
              }
            }
          }
        }
      }
    }
  }
}
MOTION
Frames: 5
Frame Time: 0.00208333
53.7035 54.4176 -2.16514 0.123952 -13.1588 1.10071 0.301456 4.83501 -0.624277 0.663663 13.6691 -1.33247 0.682773 15.314 -1.34812 -11.1656 -15.2727 -2.00629 12.627 28.4364 -4.33162 55.7773 -4.77052 -2.74725 120.937 36.749 -28.5902 -7.87365e-006 4.66086e-006 -6.50884e-006 17.5412 59.2997 -13.4563 -1.04784e-006 9.62233e-007 -2.99999 8.02911 -4.95149 0.697676 -61.156 -8.56887 5.37225 -111.723 35.619 36.7076 -3.97569e-015 6.36111e-015 3.18055e-015 -27.6652 68.6496 24.2037 3.88382e-006 2.90351e-006 2.99997 -8.02904 -4.95115 -0.697551 146.36 75.2947 37.7274 180 1.5252e-005 178.289 -29.7692 80.787 31.4845 -1.73641e-006 -6.72669e-007 2.15567 -17.7554 65.8375 17.8858 8.48121 30.2597 -3.64758 -146.149 76.4743 -34.9574 4.5067e-006 -1.99009e-005 -1.63112 144.801 -81.7816 143.183 -2.55644e-006 -1.13722e-006 -2.25375 16.1422 62.9096 -16.0502 -8.1593 27.3202 0.661949 
53.7034 54.4131 -2.17153 0.124671 -13.144 1.09962 0.302077 4.83226 -0.623797 0.665252 13.6636 -1.33102 0.684377 15.3085 -1.3467 -11.1642 -15.2772 -2.00822 12.623 28.4407 -4.33306 55.7718 -4.77387 -2.74907 120.938 36.736 -28.5926 -7.87365e-006 4.66086e-006 -6.50884e-006 17.5429 59.3177 -13.4621 -1.04784e-006 9.62233e-007 -2.99999 8.02911 -4.95149 0.697676 -61.1594 -8.56992 5.37295 -111.745 35.6123 36.7043 -1.51076e-014 6.36111e-015 -3.18055e-015 -27.6489 68.6487 24.1918 3.88382e-006 2.90351e-006 2.99997 -8.02904 -4.95115 -0.697551 146.323 75.3116 37.7675 180 1.5252e-005 178.289 -29.7701 80.7889 31.4837 -1.73641e-006 -6.72669e-007 2.15544 -17.7561 65.8317 17.8804 8.48122 30.2597 -3.64759 -146.109 76.4908 -34.9984 4.5067e-006 -1.99009e-005 -1.63115 144.792 -81.7805 143.175 -2.55644e-006 -1.13722e-006 -2.25342 16.1392 62.9044 -16.0469 -8.15932 27.3205 0.661173 
53.7053 54.3976 -2.17902 0.125561 -13.1297 1.09855 0.302667 4.82951 -0.623322 0.666778 13.6581 -1.32954 0.685919 15.303 -1.34525 -11.1627 -15.2812 -2.01015 12.6188 28.4453 -4.33455 55.7661 -4.77723 -2.75088 120.939 36.7233 -28.5948 -7.87365e-006 4.66086e-006 -6.50884e-006 17.5443 59.3343 -13.4675 -1.04784e-006 9.62233e-007 -2.99999 8.02911 -4.95149 0.697676 -61.1629 -8.57114 5.37376 -111.767 35.6062 36.7007 4.77083e-015 -3.18055e-015 1.59028e-014 -27.6316 68.6461 24.1783 3.88382e-006 2.90351e-006 2.99997 -8.02904 -4.95115 -0.697551 146.287 75.3282 37.8075 180 1.5252e-005 178.289 -29.7712 80.7907 31.483 -1.73641e-006 -6.72669e-007 2.15522 -17.7567 65.8257 17.875 8.48123 30.2598 -3.64762 -146.07 76.5069 -35.0375 4.5067e-006 -1.99009e-005 -1.63119 144.784 -81.7793 143.167 -2.55644e-006 -1.13722e-006 -2.25311 16.1363 62.8994 -16.0437 -8.15933 27.3206 0.660378 
53.7035 54.401 -2.17797 0.126569 -13.1157 1.09749 0.303234 4.82676 -0.62285 0.66826 13.6526 -1.32805 0.687416 15.2975 -1.34379 -11.1611 -15.285 -2.01209 12.6144 28.45 -4.33608 55.7603 -4.7806 -2.75269 120.941 36.7109 -28.5969 -7.87365e-006 4.66086e-006 -6.50884e-006 17.5456 59.35 -13.4724 -1.04784e-006 9.62233e-007 -2.99999 8.02911 -4.95149 0.697676 -61.1663 -8.57249 5.37463 -111.791 35.6004 36.6968 0 1.59028e-015 -0 -27.6137 68.6424 24.1638 3.88382e-006 2.90351e-006 2.99997 -8.02904 -4.95115 -0.697551 146.251 75.3446 37.8474 180 1.5252e-005 178.289 -29.7724 80.7923 31.4825 -1.73641e-006 -6.72669e-007 2.155 -17.7573 65.8197 17.8695 8.48125 30.26 -3.64768 -146.033 76.5229 -35.0754 4.5067e-006 -1.99009e-005 -1.63125 144.775 -81.778 143.159 -2.55644e-006 -1.13722e-006 -2.2528 16.1335 62.8946 -16.0406 -8.15933 27.3206 0.659568 
53.7023 54.3845 -2.17604 0.127645 -13.1019 1.09643 0.303789 4.82402 -0.622381 0.669717 13.6471 -1.32655 0.688888 15.292 -1.34232 -11.1595 -15.2886 -2.01404 12.61 28.4549 -4.33762 55.7544 -4.78397 -2.7545 120.943 36.6987 -28.5989 -7.87365e-006 4.66086e-006 -6.50884e-006 17.5467 59.3651 -13.4772 -1.04784e-006 9.62233e-007 -2.99999 8.02911 -4.95149 0.697676 -61.1697 -8.5739 5.37555 -111.815 35.5948 36.6929 3.18055e-015 -3.18055e-015 3.18055e-015 -27.5954 68.638 24.1487 3.88382e-006 2.90351e-006 2.99997 -8.02904 -4.95115 -0.697551 146.215 75.3609 37.8873 180 1.5252e-005 178.289 -29.7735 80.7939 31.482 -1.73641e-006 -6.72669e-007 2.15478 -17.758 65.8137 17.864 8.48127 30.2603 -3.64774 -145.997 76.5387 -35.1126 4.5067e-006 -1.99009e-005 -1.63131 144.766 -81.7768 143.15 -2.55644e-006 -1.13722e-006 -2.25249 16.1308 62.8898 -16.0376 -8.15932 27.3204 0.658752 
